<svg id="SvgjsSvg1822" width="560.0000000000005" height="543.3264703342033" xmlns="http://www.w3.org/2000/svg" version="1.1" xmlns:xlink="http://www.w3.org/1999/xlink" xmlns:svgjs="http://svgjs.com/svgjs"><defs id="SvgjsDefs1823"><pattern patternUnits="userSpaceOnUse" id="pattern_mark_0" width="300" height="300"><text x="150" y="100" fill="rgba(229,229,229,0.8)" font-size="18" transform="rotate(-45, 150, 150)" style="dominant-baseline: middle; text-anchor: middle;"></text></pattern><pattern patternUnits="userSpaceOnUse" id="pattern_mark_1" width="300" height="300"><text x="150" y="200" fill="rgba(229,229,229,0.8)" font-size="18" transform="rotate(-45, 150, 150)" style="dominant-baseline: middle; text-anchor: middle;"></text></pattern><marker id="SvgjsMarker1901" markerWidth="14" markerHeight="12" refX="16" refY="6" viewBox="0 0 14 12" orient="auto" markerUnits="userSpaceOnUse" stroke-dasharray="0,0"><path id="SvgjsPath1902" d="M1,1 L14,6 L1,11L1,1" fill="#ffffff" stroke="#323232" stroke-width="1.5"></path></marker><marker id="SvgjsMarker1905" markerWidth="14" markerHeight="12" refX="16" refY="6" viewBox="0 0 14 12" orient="auto" markerUnits="userSpaceOnUse" stroke-dasharray="0,0"><path id="SvgjsPath1906" d="M1,1 L14,6 L1,11L1,1" fill="#ffffff" stroke="#323232" stroke-width="1.5"></path></marker><marker id="SvgjsMarker1909" markerWidth="14" markerHeight="12" refX="16" refY="6" viewBox="0 0 14 12" orient="auto" markerUnits="userSpaceOnUse" stroke-dasharray="0,0"><path id="SvgjsPath1910" d="M1,1 L14,6 L1,11L1,1" fill="#ffffff" stroke="#323232" stroke-width="1.5"></path></marker><marker id="SvgjsMarker1955" markerWidth="14" markerHeight="12" refX="16" refY="6" viewBox="0 0 14 12" orient="auto" markerUnits="userSpaceOnUse" stroke-dasharray="0,0"><path id="SvgjsPath1956" d="M1,1 L14,6 L1,11L1,1" fill="#ffffff" stroke="#323232" stroke-width="1.5"></path></marker><marker id="SvgjsMarker1959" markerWidth="14" markerHeight="12" refX="16" refY="6" viewBox="0 0 14 12" orient="auto" markerUnits="userSpaceOnUse" stroke-dasharray="0,0"><path id="SvgjsPath1960" d="M1,1 L14,6 L1,11L1,1" fill="#ffffff" stroke="#323232" stroke-width="1.5"></path></marker><marker id="SvgjsMarker1969" markerWidth="14" markerHeight="12" refX="16" refY="6" viewBox="0 0 14 12" orient="auto" markerUnits="userSpaceOnUse" stroke-dasharray="0,0"><path id="SvgjsPath1970" d="M1,1 L14,6 L1,11L1,1" fill="#ffffff" stroke="#323232" stroke-width="1.5"></path></marker></defs><rect id="svgbackgroundid" width="560.0000000000005" height="543.3264703342033" fill="transparent"></rect><rect id="SvgjsRect1825" width="560.0000000000005" height="543.3264703342033" fill="url(#pattern_mark_0)"></rect><rect id="SvgjsRect1826" width="560.0000000000005" height="543.3264703342033" fill="url(#pattern_mark_1)"></rect><g id="SvgjsG1827" transform="translate(25.000000000001137,414.1096276062592)"><path id="SvgjsPath1828" d="M 0 4Q 0 0 4 0L 506 0Q 510 0 510 4L 510 100.217Q 510 104.217 506 104.217L 4 104.217Q 0 104.217 0 100.217Z" stroke-dasharray="7.5,3" stroke="rgba(191,191,191,1)" stroke-width="1.5" fill="none"></path><g id="SvgjsG1829"><text id="SvgjsText1830" font-family="&quot;Microsoft YaHei&quot;, 微软雅黑, Arial" text-anchor="middle" font-size="12px" width="490px" fill="#323232" font-weight="700" align="middle" lineHeight="125%" anchor="middle" family="&quot;Microsoft YaHei&quot;, 微软雅黑, Arial" size="12px" weight="700" font-style="" opacity="1" y="42.1085" transform="rotate(0)"></text></g></g><g id="SvgjsG1831" transform="translate(25,250.68770571598338)"><path id="SvgjsPath1832" d="M 0 4Q 0 0 4 0L 506 0Q 510 0 510 4L 510 96.214Q 510 100.214 506 100.214L 4 100.214Q 0 100.214 0 96.214Z" stroke-dasharray="7.5,3" stroke="rgba(191,191,191,1)" stroke-width="1.5" fill="none"></path><g id="SvgjsG1833"><text id="SvgjsText1834" font-family="&quot;Microsoft YaHei&quot;, 微软雅黑, Arial" text-anchor="middle" font-size="12px" width="490px" fill="#323232" font-weight="700" align="middle" lineHeight="125%" anchor="middle" family="&quot;Microsoft YaHei&quot;, 微软雅黑, Arial" size="12px" weight="700" font-style="" opacity="1" y="40.107" transform="rotate(0)"></text></g></g><g id="SvgjsG1835" transform="translate(25.000000000000227,25)"><path id="SvgjsPath1836" d="M 0 4Q 0 0 4 0L 506 0Q 510 0 510 4L 510 99.65Q 510 103.65 506 103.65L 4 103.65Q 0 103.65 0 99.65Z" stroke-dasharray="7.5,3" stroke="rgba(191,191,191,1)" stroke-width="1.5" fill="none"></path><g id="SvgjsG1837"><text id="SvgjsText1838" font-family="&quot;Microsoft YaHei&quot;, 微软雅黑, Arial" text-anchor="middle" font-size="12px" width="490px" fill="#323232" font-weight="700" align="middle" lineHeight="125%" anchor="middle" family="&quot;Microsoft YaHei&quot;, 微软雅黑, Arial" size="12px" weight="700" font-style="" opacity="1" y="41.825" transform="rotate(0)"></text></g></g><g id="SvgjsG1839" transform="translate(70.5750176396624,267.260536614825)"><path id="SvgjsPath1840" d="M 10 0L 89.305 0C 102.638 0 102.638 30 89.305 30L 10 30C -3.333 30 -3.333 0 10 0Z" stroke="rgba(0,136,204,1)" stroke-width="1.5" fill="none"></path><g id="SvgjsG1841"><text id="SvgjsText1842" font-family="&quot;Microsoft YaHei&quot;, 微软雅黑, Arial" text-anchor="middle" font-size="12px" width="80px" fill="#0088cc" font-weight="700" align="middle" lineHeight="125%" anchor="middle" family="&quot;Microsoft YaHei&quot;, 微软雅黑, Arial" size="12px" weight="700" font-style="" opacity="1" y="5" transform="rotate(0)"><tspan id="SvgjsTspan1843" dy="15" x="50"><tspan id="SvgjsTspan1844" style="">XForm</tspan></tspan></text></g></g><g id="SvgjsG1845" transform="translate(176.57541228322987,267.260536614825)"><path id="SvgjsPath1846" d="M 10 0L 89.305 0C 102.638 0 102.638 30 89.305 30L 10 30C -3.333 30 -3.333 0 10 0Z" stroke="rgba(0,136,204,1)" stroke-width="1.5" fill="none"></path><g id="SvgjsG1847"><text id="SvgjsText1848" font-family="&quot;Microsoft YaHei&quot;, 微软雅黑, Arial" text-anchor="middle" font-size="12px" width="80px" fill="#0088cc" font-weight="700" align="middle" lineHeight="125%" anchor="middle" family="&quot;Microsoft YaHei&quot;, 微软雅黑, Arial" size="12px" weight="700" font-style="" opacity="1" y="5" transform="rotate(0)"><tspan id="SvgjsTspan1849" dy="15" x="50"><tspan id="SvgjsTspan1850" style="">XTable</tspan></tspan></text></g></g><g id="SvgjsG1851" transform="translate(284.2620763343891,267.260536614825)"><path id="SvgjsPath1852" d="M 10 0L 89.305 0C 102.638 0 102.638 30 89.305 30L 10 30C -3.333 30 -3.333 0 10 0Z" stroke="rgba(0,136,204,1)" stroke-width="1.5" fill="none"></path><g id="SvgjsG1853"><text id="SvgjsText1854" font-family="&quot;Microsoft YaHei&quot;, 微软雅黑, Arial" text-anchor="middle" font-size="12px" width="80px" fill="#0088cc" font-weight="700" align="middle" lineHeight="125%" anchor="middle" family="&quot;Microsoft YaHei&quot;, 微软雅黑, Arial" size="12px" weight="700" font-style="" opacity="1" y="5" transform="rotate(0)"><tspan id="SvgjsTspan1855" dy="15" x="50"><tspan id="SvgjsTspan1856" style="">XMenu</tspan></tspan></text></g></g><g id="SvgjsG1857" transform="translate(209.53999330412557,194)"><path id="SvgjsPath1858" d="M 10 0L 130.92 0C 144.253 0 144.253 30 130.92 30L 10 30C -3.333 30 -3.333 0 10 0Z" stroke="rgba(0,136,204,1)" stroke-width="1.5" fill="none"></path><g id="SvgjsG1859"><text id="SvgjsText1860" font-family="&quot;Microsoft YaHei&quot;, 微软雅黑, Arial" text-anchor="middle" font-size="12px" width="121px" fill="#0088cc" font-weight="700" align="middle" lineHeight="125%" anchor="middle" family="&quot;Microsoft YaHei&quot;, 微软雅黑, Arial" size="12px" weight="700" font-style="" opacity="1" y="5" transform="rotate(0)"><tspan id="SvgjsTspan1861" dy="15" x="70.5"><tspan id="SvgjsTspan1862" style="">@totalizer/design</tspan></tspan></text></g></g><g id="SvgjsG1863" transform="translate(173.34917428017275,81.7269962151654)"><path id="SvgjsPath1864" d="M 0 4Q 0 0 4 0L 95.699 0Q 99.699 0 99.699 4L 99.699 26.049Q 99.699 30.049 95.699 30.049L 4 30.049Q 0 30.049 0 26.049Z" stroke="rgba(33,41,48,1)" stroke-width="1.5" fill="none"></path><g id="SvgjsG1865"><text id="SvgjsText1866" font-family="&quot;Microsoft YaHei&quot;, 微软雅黑, Arial" text-anchor="middle" font-size="12px" width="80px" fill="#323232" font-weight="700" align="middle" lineHeight="125%" anchor="middle" family="&quot;Microsoft YaHei&quot;, 微软雅黑, Arial" size="12px" weight="700" font-style="" opacity="1" y="5.0245" transform="rotate(0)"><tspan id="SvgjsTspan1867" dy="15" x="50"><tspan id="SvgjsTspan1868" style="">E-commerce</tspan></tspan></text></g></g><g id="SvgjsG1869" transform="translate(173.34917428017275,41.26963020723201)"><path id="SvgjsPath1870" d="M 0 4Q 0 0 4 0L 95.699 0Q 99.699 0 99.699 4L 99.699 26.049Q 99.699 30.049 95.699 30.049L 4 30.049Q 0 30.049 0 26.049Z" stroke="rgba(33,41,48,1)" stroke-width="1.5" fill="none"></path><g id="SvgjsG1871"><text id="SvgjsText1872" font-family="&quot;Microsoft YaHei&quot;, 微软雅黑, Arial" text-anchor="middle" font-size="12px" width="80px" fill="#323232" font-weight="700" align="middle" lineHeight="125%" anchor="middle" family="&quot;Microsoft YaHei&quot;, 微软雅黑, Arial" size="12px" weight="700" font-style="" opacity="1" y="5.0245" transform="rotate(0)"><tspan id="SvgjsTspan1873" dy="15" x="50"><tspan id="SvgjsTspan1874" style="">Blog</tspan></tspan></text></g></g><g id="SvgjsG1875" transform="translate(59.74638030775918,81.7269962151654)"><path id="SvgjsPath1876" d="M 0 4Q 0 0 4 0L 95.699 0Q 99.699 0 99.699 4L 99.699 26.049Q 99.699 30.049 95.699 30.049L 4 30.049Q 0 30.049 0 26.049Z" stroke="rgba(33,41,48,1)" stroke-width="1.5" fill="none"></path><g id="SvgjsG1877"><text id="SvgjsText1878" font-family="&quot;Microsoft YaHei&quot;, 微软雅黑, Arial" text-anchor="middle" font-size="12px" width="80px" fill="#323232" font-weight="700" align="middle" lineHeight="125%" anchor="middle" family="&quot;Microsoft YaHei&quot;, 微软雅黑, Arial" size="12px" weight="700" font-style="" opacity="1" y="5.0245" transform="rotate(0)"><tspan id="SvgjsTspan1879" dy="15" x="50"><tspan id="SvgjsTspan1880" style="">Email</tspan></tspan></text></g></g><g id="SvgjsG1881" transform="translate(59.74638030775918,41.26963020723201)"><path id="SvgjsPath1882" d="M 0 4Q 0 0 4 0L 95.699 0Q 99.699 0 99.699 4L 99.699 26.049Q 99.699 30.049 95.699 30.049L 4 30.049Q 0 30.049 0 26.049Z" stroke="rgba(33,41,48,1)" stroke-width="1.5" fill="none"></path><g id="SvgjsG1883"><text id="SvgjsText1884" font-family="&quot;Microsoft YaHei&quot;, 微软雅黑, Arial" text-anchor="middle" font-size="12px" width="80px" fill="#323232" font-weight="700" align="middle" lineHeight="125%" anchor="middle" family="&quot;Microsoft YaHei&quot;, 微软雅黑, Arial" size="12px" weight="700" font-style="" opacity="1" y="5.0245" transform="rotate(0)"><tspan id="SvgjsTspan1885" dy="15" x="50"><tspan id="SvgjsTspan1886" style="">AI</tspan></tspan></text></g></g><g id="SvgjsG1887" transform="translate(286.9519682525863,41.26963020723201)"><path id="SvgjsPath1888" d="M 0 4Q 0 0 4 0L 95.699 0Q 99.699 0 99.699 4L 99.699 26.049Q 99.699 30.049 95.699 30.049L 4 30.049Q 0 30.049 0 26.049Z" stroke="rgba(33,41,48,1)" stroke-width="1.5" fill="none"></path><g id="SvgjsG1889"><text id="SvgjsText1890" font-family="&quot;Microsoft YaHei&quot;, 微软雅黑, Arial" text-anchor="middle" font-size="12px" width="80px" fill="#323232" font-weight="700" align="middle" lineHeight="125%" anchor="middle" family="&quot;Microsoft YaHei&quot;, 微软雅黑, Arial" size="12px" weight="700" font-style="" opacity="1" y="5.0245" transform="rotate(0)"><tspan id="SvgjsTspan1891" dy="15" x="50"><tspan id="SvgjsTspan1892" style="">Dashboard</tspan></tspan></text></g></g><g id="SvgjsG1893" transform="translate(400.5547622249994,41.26963020723201)"><path id="SvgjsPath1894" d="M 0 4Q 0 0 4 0L 95.699 0Q 99.699 0 99.699 4L 99.699 26.049Q 99.699 30.049 95.699 30.049L 4 30.049Q 0 30.049 0 26.049Z" stroke="rgba(33,41,48,1)" stroke-width="1.5" fill="none"></path><g id="SvgjsG1895"><text id="SvgjsText1896" font-family="&quot;Microsoft YaHei&quot;, 微软雅黑, Arial" text-anchor="middle" font-size="12px" width="80px" fill="#323232" font-weight="700" align="middle" lineHeight="125%" anchor="middle" family="&quot;Microsoft YaHei&quot;, 微软雅黑, Arial" size="12px" weight="700" font-style="" opacity="1" y="5.0245" transform="rotate(0)"><tspan id="SvgjsTspan1897" dy="15" x="50"><tspan id="SvgjsTspan1898" style="">Landing Page</tspan></tspan></text></g></g><g id="SvgjsG1899"><path id="SvgjsPath1900" d="M102.40265721303396 249.9459025524954C 102.29207662414433 204.66160204609048 163.51388963423267 208.99959905770385 206.8400322042392 208.9851056419485" stroke-dasharray="1.5,2.25" stroke="#323232" stroke-width="1.5" fill="none" marker-end="url(#SvgjsMarker1901)"></path></g><g id="SvgjsG1903"><path id="SvgjsPath1904" d="M225.29207662414433 250.48499406474934C 225.29207662414433 239.9887387454972 225.29207662414433 234.36561108587108 225.29207662414433 225.8193557666189" stroke-dasharray="1.5,2.25" stroke="#323232" stroke-width="1.5" fill="none" marker-end="url(#SvgjsMarker1905)"></path></g><g id="SvgjsG1907"><path id="SvgjsPath1908" d="M456.1806048888026 249.94603594295774C 456.29207662414433 205.18891946019176 395.95857123208043 208.99959905770385 353.15975907057265 208.98777153910947" stroke-dasharray="1.5,2.25" stroke="#323232" stroke-width="1.5" fill="none" marker-end="url(#SvgjsMarker1909)"></path></g><g id="SvgjsG1911" transform="translate(128.77135763003912,431.5)"><path id="SvgjsPath1912" d="M 0 4Q 0 0 4 0L 66 0Q 70 0 70 4L 70 26Q 70 30 66 30L 4 30Q 0 30 0 26Z" stroke="rgba(33,41,48,1)" stroke-width="1.5" fill="none"></path><g id="SvgjsG1913"><text id="SvgjsText1914" font-family="&quot;Microsoft YaHei&quot;, 微软雅黑, Arial" text-anchor="middle" font-size="12px" width="50px" fill="#323232" font-weight="700" align="middle" lineHeight="125%" anchor="middle" family="&quot;Microsoft YaHei&quot;, 微软雅黑, Arial" size="12px" weight="700" font-style="" opacity="1" y="5" transform="rotate(0)"><tspan id="SvgjsTspan1915" dy="15" x="35"><tspan id="SvgjsTspan1916" style="">MUI</tspan></tspan></text></g></g><g id="SvgjsG1917" transform="translate(206.8798969463553,431.5)"><path id="SvgjsPath1918" d="M 0 4Q 0 0 4 0L 66 0Q 70 0 70 4L 70 26Q 70 30 66 30L 4 30Q 0 30 0 26Z" stroke="rgba(33,41,48,1)" stroke-width="1.5" fill="none"></path><g id="SvgjsG1919"><text id="SvgjsText1920" font-family="&quot;Microsoft YaHei&quot;, 微软雅黑, Arial" text-anchor="middle" font-size="12px" width="50px" fill="#323232" font-weight="700" align="middle" lineHeight="125%" anchor="middle" family="&quot;Microsoft YaHei&quot;, 微软雅黑, Arial" size="12px" weight="700" font-style="" opacity="1" y="5" transform="rotate(0)"><tspan id="SvgjsTspan1921" dy="15" x="35"><tspan id="SvgjsTspan1922" style="">Motion</tspan></tspan></text></g></g><g id="SvgjsG1923" transform="translate(285.93994847317776,469)"><path id="SvgjsPath1924" d="M 0 4Q 0 0 4 0L 222.263 0Q 226.263 0 226.263 4L 226.263 26Q 226.263 30 222.263 30L 4 30Q 0 30 0 26Z" stroke-dasharray="7.5,3" stroke="rgba(191,191,191,1)" stroke-width="1.5" fill="none"></path><g id="SvgjsG1925"><text id="SvgjsText1926" font-family="&quot;Microsoft YaHei&quot;, 微软雅黑, Arial" text-anchor="middle" font-size="12px" width="207px" fill="#323232" font-weight="700" align="middle" lineHeight="125%" anchor="middle" family="&quot;Microsoft YaHei&quot;, 微软雅黑, Arial" size="12px" weight="700" font-style="" opacity="1" y="5" transform="rotate(0)"><tspan id="SvgjsTspan1927" dy="15" x="113.5"><tspan id="SvgjsTspan1928" style="">100+ Open-Source Projects</tspan></tspan></text></g></g><g id="SvgjsG1929" transform="translate(206.8798969463553,469)"><path id="SvgjsPath1930" d="M 0 4Q 0 0 4 0L 66 0Q 70 0 70 4L 70 26Q 70 30 66 30L 4 30Q 0 30 0 26Z" stroke="rgba(33,41,48,1)" stroke-width="1.5" fill="none"></path><g id="SvgjsG1931"><text id="SvgjsText1932" font-family="&quot;Microsoft YaHei&quot;, 微软雅黑, Arial" text-anchor="middle" font-size="12px" width="50px" fill="#323232" font-weight="700" align="middle" lineHeight="125%" anchor="middle" family="&quot;Microsoft YaHei&quot;, 微软雅黑, Arial" size="12px" weight="700" font-style="" opacity="1" y="5" transform="rotate(0)"><tspan id="SvgjsTspan1933" dy="15" x="35"><tspan id="SvgjsTspan1934" style="">Vite</tspan></tspan></text></g></g><g id="SvgjsG1935" transform="translate(364.0714394562581,431.5)"><path id="SvgjsPath1936" d="M 0 4Q 0 0 4 0L 66 0Q 70 0 70 4L 70 26Q 70 30 66 30L 4 30Q 0 30 0 26Z" stroke="rgba(33,41,48,1)" stroke-width="1.5" fill="none"></path><g id="SvgjsG1937"><text id="SvgjsText1938" font-family="&quot;Microsoft YaHei&quot;, 微软雅黑, Arial" text-anchor="middle" font-size="12px" width="50px" fill="#323232" font-weight="700" align="middle" lineHeight="125%" anchor="middle" family="&quot;Microsoft YaHei&quot;, 微软雅黑, Arial" size="12px" weight="700" font-style="" opacity="1" y="5" transform="rotate(0)"><tspan id="SvgjsTspan1939" dy="15" x="35"><tspan id="SvgjsTspan1940" style="">Particles</tspan></tspan></text></g></g><g id="SvgjsG1941" transform="translate(128.77135763003912,469)"><path id="SvgjsPath1942" d="M 0 4Q 0 0 4 0L 66 0Q 70 0 70 4L 70 26Q 70 30 66 30L 4 30Q 0 30 0 26Z" stroke="rgba(33,41,48,1)" stroke-width="1.5" fill="none"></path><g id="SvgjsG1943"><text id="SvgjsText1944" font-family="&quot;Microsoft YaHei&quot;, 微软雅黑, Arial" text-anchor="middle" font-size="12px" width="50px" fill="#323232" font-weight="700" align="middle" lineHeight="125%" anchor="middle" family="&quot;Microsoft YaHei&quot;, 微软雅黑, Arial" size="12px" weight="700" font-style="" opacity="1" y="5" transform="rotate(0)"><tspan id="SvgjsTspan1945" dy="15" x="35"><tspan id="SvgjsTspan1946" style="">Next.js</tspan></tspan></text></g></g><g id="SvgjsG1947" transform="translate(285.93994847317776,431.5)"><path id="SvgjsPath1948" d="M 0 4Q 0 0 4 0L 66 0Q 70 0 70 4L 70 26Q 70 30 66 30L 4 30Q 0 30 0 26Z" stroke="rgba(33,41,48,1)" stroke-width="1.5" fill="none"></path><g id="SvgjsG1949"><text id="SvgjsText1950" font-family="&quot;Microsoft YaHei&quot;, 微软雅黑, Arial" text-anchor="middle" font-size="12px" width="50px" fill="#323232" font-weight="700" align="middle" lineHeight="125%" anchor="middle" family="&quot;Microsoft YaHei&quot;, 微软雅黑, Arial" size="12px" weight="700" font-style="" opacity="1" y="5" transform="rotate(0)"><tspan id="SvgjsTspan1951" dy="15" x="35"><tspan id="SvgjsTspan1952" style="">Dnd-kit</tspan></tspan></text></g></g><g id="SvgjsG1953"><path id="SvgjsPath1954" d="M279.9998892847045 193.25C 279.9998891402072 167.85986501786022 279.9999178745886 154.7897975267967 279.9999173543983 131.34966254465687" stroke-dasharray="1.5,2.25" stroke="#323232" stroke-width="1.5" fill="none" marker-end="url(#SvgjsMarker1955)"></path></g><g id="SvgjsG1957"><path id="SvgjsPath1958" d="M280.0000000000002 413.3596276062592C 280.0000000000002 388.82637419672005 280.0000000000002 376.1847474919507 280.0000000000002 353.60149408241153" stroke-dasharray="1.5,2.25" stroke="#323232" stroke-width="1.5" fill="none" marker-end="url(#SvgjsMarker1959)"></path></g><g id="SvgjsG1961" transform="translate(391.9487403855484,267.260536614825)"><path id="SvgjsPath1962" d="M 10 0L 89.305 0C 102.638 0 102.638 30 89.305 30L 10 30C -3.333 30 -3.333 0 10 0Z" stroke="rgba(0,136,204,1)" stroke-width="1.5" fill="none"></path><g id="SvgjsG1963"><text id="SvgjsText1964" font-family="&quot;Microsoft YaHei&quot;, 微软雅黑, Arial" text-anchor="middle" font-size="12px" width="80px" fill="#0088cc" font-weight="700" align="middle" lineHeight="125%" anchor="middle" family="&quot;Microsoft YaHei&quot;, 微软雅黑, Arial" size="12px" weight="700" font-style="" opacity="1" y="5" transform="rotate(0)"><tspan id="SvgjsTspan1965" dy="15" x="50"><tspan id="SvgjsTspan1966" style="">XCard</tspan></tspan></text></g></g><g id="SvgjsG1967"><path id="SvgjsPath1968" d="M335.29207662414433 249.93770571598338C 335.29207662414433 239.66036573623762 335.29207662414433 234.14669574636468 335.29207662414433 225.8193557666189" stroke-dasharray="1.5,2.25" stroke="#323232" stroke-width="1.5" fill="none" marker-end="url(#SvgjsMarker1969)"></path></g><g id="SvgjsG1971" transform="translate(442.2029304393384,431.5)"><path id="SvgjsPath1972" d="M 0 4Q 0 0 4 0L 66 0Q 70 0 70 4L 70 26Q 70 30 66 30L 4 30Q 0 30 0 26Z" stroke="rgba(33,41,48,1)" stroke-width="1.5" fill="none"></path><g id="SvgjsG1973"><text id="SvgjsText1974" font-family="&quot;Microsoft YaHei&quot;, 微软雅黑, Arial" text-anchor="middle" font-size="12px" width="50px" fill="#323232" font-weight="700" align="middle" lineHeight="125%" anchor="middle" family="&quot;Microsoft YaHei&quot;, 微软雅黑, Arial" size="12px" weight="700" font-style="" opacity="1" y="5" transform="rotate(0)"><tspan id="SvgjsTspan1975" dy="15" x="35"><tspan id="SvgjsTspan1976" style="">Typed.js</tspan></tspan></text></g></g><g id="SvgjsG1977" transform="translate(70.5750176396624,306.46731729707244)"><path id="SvgjsPath1978" d="M 10 0L 89.305 0C 102.638 0 102.638 30 89.305 30L 10 30C -3.333 30 -3.333 0 10 0Z" stroke="rgba(0,136,204,1)" stroke-width="1.5" fill="none"></path><g id="SvgjsG1979"><text id="SvgjsText1980" font-family="&quot;Microsoft YaHei&quot;, 微软雅黑, Arial" text-anchor="middle" font-size="12px" width="80px" fill="#0088cc" font-weight="700" align="middle" lineHeight="125%" anchor="middle" family="&quot;Microsoft YaHei&quot;, 微软雅黑, Arial" size="12px" weight="700" font-style="" opacity="1" y="5" transform="rotate(0)"><tspan id="SvgjsTspan1981" dy="15" x="50"><tspan id="SvgjsTspan1982" style="">XText</tspan></tspan></text></g></g><g id="SvgjsG1983" transform="translate(176.57541228322987,306.46731729707244)"><path id="SvgjsPath1984" d="M 10 0L 89.305 0C 102.638 0 102.638 30 89.305 30L 10 30C -3.333 30 -3.333 0 10 0Z" stroke="rgba(0,136,204,1)" stroke-width="1.5" fill="none"></path><g id="SvgjsG1985"><text id="SvgjsText1986" font-family="&quot;Microsoft YaHei&quot;, 微软雅黑, Arial" text-anchor="middle" font-size="12px" width="80px" fill="#0088cc" font-weight="700" align="middle" lineHeight="125%" anchor="middle" family="&quot;Microsoft YaHei&quot;, 微软雅黑, Arial" size="12px" weight="700" font-style="" opacity="1" y="5" transform="rotate(0)"><tspan id="SvgjsTspan1987" dy="15" x="50"><tspan id="SvgjsTspan1988" style="">XBackground</tspan></tspan></text></g></g><g id="SvgjsG1989" transform="translate(284.2620763343891,306.07070763819615)"><path id="SvgjsPath1990" d="M 0 4Q 0 0 4 0L 202.992 0Q 206.992 0 206.992 4L 206.992 26Q 206.992 30 202.992 30L 4 30Q 0 30 0 26Z" stroke-dasharray="7.5,3" stroke="rgba(191,191,191,1)" stroke-width="1.5" fill="none"></path><g id="SvgjsG1991"><text id="SvgjsText1992" font-family="&quot;Microsoft YaHei&quot;, 微软雅黑, Arial" text-anchor="middle" font-size="12px" width="187px" fill="#323232" font-weight="700" align="middle" lineHeight="125%" anchor="middle" family="&quot;Microsoft YaHei&quot;, 微软雅黑, Arial" size="12px" weight="700" font-style="" opacity="1" y="5" transform="rotate(0)"><tspan id="SvgjsTspan1993" dy="15" x="103.5"><tspan id="SvgjsTspan1994" style="">Totalizer X Project Matrix</tspan></tspan></text></g></g><g id="SvgjsG1995" transform="translate(286.9519682525863,81.75172491712374)"><path id="SvgjsPath1996" d="M 0 4Q 0 0 4 0L 209.302 0Q 213.302 0 213.302 4L 213.302 26Q 213.302 30 209.302 30L 4 30Q 0 30 0 26Z" stroke-dasharray="7.5,3" stroke="rgba(191,191,191,1)" stroke-width="1.5" fill="none"></path><g id="SvgjsG1997"><text id="SvgjsText1998" font-family="&quot;Microsoft YaHei&quot;, 微软雅黑, Arial" text-anchor="middle" font-size="12px" width="194px" fill="#323232" font-weight="700" align="middle" lineHeight="125%" anchor="middle" family="&quot;Microsoft YaHei&quot;, 微软雅黑, Arial" size="12px" weight="700" font-style="" opacity="1" y="5" transform="rotate(0)"><tspan id="SvgjsTspan1999" dy="15" x="107"><tspan id="SvgjsTspan2000" style="">Modern, Minimalist Templates</tspan></tspan></text></g></g><g id="SvgjsG2001" transform="translate(50.66281831372294,431.5)"><path id="SvgjsPath2002" d="M 0 4Q 0 0 4 0L 66 0Q 70 0 70 4L 70 26Q 70 30 66 30L 4 30Q 0 30 0 26Z" stroke="rgba(33,41,48,1)" stroke-width="1.5" fill="none"></path><g id="SvgjsG2003"><text id="SvgjsText2004" font-family="&quot;Microsoft YaHei&quot;, 微软雅黑, Arial" text-anchor="middle" font-size="12px" width="50px" fill="#323232" font-weight="700" align="middle" lineHeight="125%" anchor="middle" family="&quot;Microsoft YaHei&quot;, 微软雅黑, Arial" size="12px" weight="700" font-style="" opacity="1" y="5" transform="rotate(0)"><tspan id="SvgjsTspan2005" dy="15" x="35"><tspan id="SvgjsTspan2006" style="">React</tspan></tspan></text></g></g><g id="SvgjsG2007" transform="translate(50.66281831372294,469)"><path id="SvgjsPath2008" d="M 0 4Q 0 0 4 0L 66 0Q 70 0 70 4L 70 26Q 70 30 66 30L 4 30Q 0 30 0 26Z" stroke="rgba(33,41,48,1)" stroke-width="1.5" fill="none"></path><g id="SvgjsG2009"><text id="SvgjsText2010" font-family="&quot;Microsoft YaHei&quot;, 微软雅黑, Arial" text-anchor="middle" font-size="12px" width="50px" fill="#323232" font-weight="700" align="middle" lineHeight="125%" anchor="middle" family="&quot;Microsoft YaHei&quot;, 微软雅黑, Arial" size="12px" weight="700" font-style="" opacity="1" y="5" transform="rotate(0)"><tspan id="SvgjsTspan2011" dy="15" x="35"><tspan id="SvgjsTspan2012" style="">Mobx</tspan></tspan></text></g></g><g id="SvgjsG2013" transform="translate(185.29207662414433,152)"><path id="SvgjsPath2014" d="M 0 0L 189.479 0L 189.479 27L 0 27Z" stroke="none" fill="none"></path><g id="SvgjsG2015"><text id="SvgjsText2016" font-family="&quot;Microsoft YaHei&quot;, 微软雅黑, Arial" text-anchor="middle" font-size="12px" width="190px" fill="#323232" font-weight="700" align="middle" lineHeight="125%" anchor="middle" family="&quot;Microsoft YaHei&quot;, 微软雅黑, Arial" size="12px" weight="700" font-style="" opacity="1" y="3.5" transform="rotate(0)"><tspan id="SvgjsTspan2017" dy="15" x="95"><tspan id="SvgjsTspan2018" style="">Design and R&amp;D Solutions</tspan></tspan></text></g></g><g id="SvgjsG2019" transform="translate(198.83943990539433,362.50564416883765)"><path id="SvgjsPath2020" d="M 0 0L 161.453 0L 161.453 40L 0 40Z" stroke="none" fill="none"></path><g id="SvgjsG2021"><text id="SvgjsText2022" font-family="&quot;Microsoft YaHei&quot;, 微软雅黑, Arial" text-anchor="middle" font-size="12px" width="162px" fill="#323232" font-weight="700" align="middle" lineHeight="125%" anchor="middle" family="&quot;Microsoft YaHei&quot;, 微软雅黑, Arial" size="12px" weight="700" font-style="" opacity="1" y="10" transform="rotate(0)"><tspan id="SvgjsTspan2023" dy="15" x="81"><tspan id="SvgjsTspan2024" style="">Community Best Practices</tspan></tspan></text></g></g><g id="SvgjsG2025"></g></svg>